#N canvas 72 96 1848 984 12;
#X floatatom 79 263 5 0 0 0 - - -;
#X floatatom 128 264 5 0 0 0 - - -;
#X floatatom 177 269 5 0 0 0 - - -;
#X obj 56 540 dac~ 1 2;
#X obj 214 27 loadbang;
#X floatatom 311 167 5 0 0 0 - - -;
#X msg 307 72 listen 7562;
#X floatatom 223 268 5 0 0 0 - - -;
#X obj 136 539 dac~ 3 4;
#X obj 212 539 dac~ 5 6;
#X obj 294 539 dac~ 7 8;
#X floatatom 67 410 5 0 0 0 - - -;
#X floatatom 139 407 5 0 0 0 - - -;
#X floatatom 224 413 5 0 0 0 - - -;
#X floatatom 293 409 5 0 0 0 - - -;
#X obj 29 326 osc~ 440;
#X obj 101 327 osc~ 440;
#X obj 179 326 osc~ 440;
#X obj 251 327 osc~ 440;
#X obj 58 470 *~;
#X obj 145 473 *~;
#X obj 216 469 *~;
#X obj 287 468 *~;
#X obj 147 176 unpack f f f f;
#X obj 195 127 netreceive -u -b;
#X obj 68 381 / 255;
#X obj 140 378 / 255;
#X obj 223 384 / 255;
#X obj 294 380 / 255;
#X obj 385 441 print volume 4;
#X obj 387 475 print volume 3;
#X obj 386 509 print volume 2;
#X obj 386 543 print volume 1;
#X connect 0 0 25 0;
#X connect 1 0 26 0;
#X connect 2 0 27 0;
#X connect 4 0 6 0;
#X connect 6 0 24 0;
#X connect 7 0 28 0;
#X connect 11 0 19 1;
#X connect 11 0 32 0;
#X connect 12 0 20 1;
#X connect 12 0 31 0;
#X connect 13 0 21 1;
#X connect 13 0 30 0;
#X connect 14 0 22 1;
#X connect 14 0 29 0;
#X connect 15 0 19 0;
#X connect 16 0 20 0;
#X connect 17 0 21 0;
#X connect 18 0 22 0;
#X connect 19 0 3 0;
#X connect 19 0 3 1;
#X connect 20 0 8 0;
#X connect 20 0 8 1;
#X connect 21 0 9 0;
#X connect 21 0 9 1;
#X connect 22 0 10 0;
#X connect 22 0 10 1;
#X connect 23 0 0 0;
#X connect 23 1 1 0;
#X connect 23 2 2 0;
#X connect 23 3 7 0;
#X connect 24 0 5 0;
#X connect 24 0 23 0;
#X connect 25 0 11 0;
#X connect 26 0 12 0;
#X connect 27 0 13 0;
#X connect 28 0 14 0;
